HIERARCHY
ROOT Hips
{
 OFFSET 0.000000 0.000000 0.000000
 CHANNELS 6 Xposition Yposition Zposition Yrotation Xrotation Zrotation
 JOINT Chest
 {
  OFFSET 0.000000 9.585900 0.002600
  CHANNELS 3 Yrotation Xrotation Zrotation
  JOINT Chest2
  {
   OFFSET 0.000000 9.601200 -0.005300
   CHANNELS 3 Yrotation Xrotation Zrotation
   JOINT Chest3
   {
    OFFSET 0.000000 9.561800 0.000000
    CHANNELS 3 Yrotation Xrotation Zrotation
    JOINT Chest4
    {
     OFFSET 0.000000 9.552100 0.000000
     CHANNELS 3 Yrotation Xrotation Zrotation
     JOINT Neck
     {
      OFFSET 0.000000 14.453000 0.000000
      CHANNELS 3 Yrotation Xrotation Zrotation
      JOINT Head
      {
       OFFSET 0.000000 8.936500 -0.011300
       CHANNELS 3 Yrotation Xrotation Zrotation
       End Site
       {
        OFFSET 0.000000 17.073600 -0.006000
       }
      }
     }
     JOINT RightCollar
     {
      OFFSET -2.921100 9.558500 0.000000
      CHANNELS 3 Yrotation Xrotation Zrotation
      JOINT RightShoulder
      {
       OFFSET -13.519700 0.000000 0.000000
       CHANNELS 3 Yrotation Xrotation Zrotation
       JOINT RightElbow
       {
        OFFSET 0.000000 -29.696600 0.000000
        CHANNELS 3 Yrotation Xrotation Zrotation
        JOINT RightWrist
        {
         OFFSET 0.000000 -24.004700 0.000000
         CHANNELS 3 Yrotation Xrotation Zrotation
         End Site
         {
          OFFSET 0.000000 -17.728500 0.000000
         }
        }
       }
      }
     }
     JOINT LeftCollar
     {
      OFFSET 2.921100 9.558500 0.000000
      CHANNELS 3 Yrotation Xrotation Zrotation
      JOINT LeftShoulder
      {
       OFFSET 13.519700 0.000000 0.000000
       CHANNELS 3 Yrotation Xrotation Zrotation
       JOINT LeftElbow
       {
        OFFSET 0.000000 -29.696600 0.000000
        CHANNELS 3 Yrotation Xrotation Zrotation
        JOINT LeftWrist
        {
         OFFSET 0.000000 -24.004700 0.000000
         CHANNELS 3 Yrotation Xrotation Zrotation
         End Site
         {
          OFFSET 0.000000 -17.728500 0.000000
         }
        }
       }
      }
     }
    }
   }
  }
 }
 JOINT RightHip
 {
  OFFSET -7.771700 -0.012900 -0.001300
  CHANNELS 3 Yrotation Xrotation Zrotation
  JOINT RightKnee
  {
   OFFSET 0.000000 -40.869800 0.001200
   CHANNELS 3 Yrotation Xrotation Zrotation
   JOINT RightAnkle
   {
    OFFSET 0.000000 -39.717900 0.002100
    CHANNELS 3 Yrotation Xrotation Zrotation
    JOINT RightToe
    {
     OFFSET 0.000000 -4.965400 11.033500
     CHANNELS 3 Yrotation Xrotation Zrotation
     End Site
     {
      OFFSET 0.000000 -1.423100 5.872300
     }
    }
   }
  }
 }
 JOINT LeftHip
 {
  OFFSET 7.771700 -0.012900 -0.001300
  CHANNELS 3 Yrotation Xrotation Zrotation
  JOINT LeftKnee
  {
   OFFSET 0.000000 -40.869800 0.001200
   CHANNELS 3 Yrotation Xrotation Zrotation
   JOINT LeftAnkle
   {
    OFFSET 0.000000 -39.717900 0.002100
    CHANNELS 3 Yrotation Xrotation Zrotation
    JOINT LeftToe
    {
     OFFSET 0.000000 -4.965400 11.033500
     CHANNELS 3 Yrotation Xrotation Zrotation
     End Site
     {
      OFFSET 0.000000 -1.423100 5.872300
     }
    }
   }
  }
 }
}
MOTION
Frames: 9
Frame Time: 0.008333
-45.369219 56.322650 -12.324966 -177.405196 -13.345757 -0.767540 -0.899839 14.856832 0.199543 -0.050658 1.382133 0.101050 -0.083667 2.327526 0.169481 -0.391519 13.362493 0.904408 2.054546 13.465937 -5.507034 3.500629 -11.446862 -6.421497 1.026215 1.004040 1.160099 0.994180 -11.062633 -7.633915 -97.532825 -64.314724 128.042122 -10.978560 -0.529418 0.165173 -6.808742 -1.005759 1.512000 4.060397 -12.974928 5.607740 63.767284 -53.928754 -102.834531 8.747839 -12.252633 9.300942 -3.048322 -61.967010 10.960019 -28.795349 85.459792 -32.705940 -10.357363 -18.677367 13.914527 0.293058 0.337516 -0.564046 17.434503 -56.263564 -21.246077 68.006095 71.233776 69.187591 -6.893571 -14.715031 1.096437 0.060481 0.753633 0.008989
-45.366755 56.320471 -12.333590 -177.419612 -13.354059 -0.754170 -0.901357 14.835374 0.170803 -0.048654 1.375172 0.098506 -0.087707 2.268149 0.145572 -0.363735 13.381497 0.905031 2.026708 13.341308 -5.573464 3.488967 -11.577030 -6.491623 0.974715 0.928541 1.136101 0.915556 -10.930420 -7.515089 -97.469852 -64.287831 127.948304 -10.976060 -0.336215 0.165022 -6.785327 -1.014334 1.538822 4.096049 -12.903894 5.589083 63.746360 -53.934386 -102.821914 8.749105 -12.224377 9.310381 -3.130923 -61.951183 11.017847 -29.475427 85.476235 -33.416869 -10.371854 -18.865514 14.085890 0.297878 0.321455 -0.542715 17.413544 -56.267240 -21.230799 68.065863 71.236282 69.234096 -6.896119 -14.713554 1.085402 0.068255 0.748834 0.012249
-45.370060 56.316676 -12.336337 -177.416170 -13.328661 -0.711972 -0.942942 14.752629 0.093686 -0.030598 1.395269 0.109032 -0.088220 2.258526 0.141489 -0.346083 13.352703 0.884966 1.998751 13.218149 -5.642737 3.477930 -11.705590 -6.565184 0.932877 0.900228 1.128883 0.830255 -10.849069 -7.421181 -97.409549 -64.265363 127.860588 -10.966011 -0.144199 0.164338 -6.776748 -0.979271 1.567232 4.133803 -12.868266 5.570013 63.715910 -53.943490 -102.814927 8.741583 -12.221397 9.337340 -3.171493 -61.973098 11.004226 -30.064204 85.490582 -34.038432 -10.397296 -19.026946 14.245291 0.339193 0.296126 -0.506929 17.438153 -56.288806 -21.290691 68.121527 71.233993 69.279446 -6.941850 -14.770196 1.065382 0.114735 0.801259 0.033107
-45.366918 56.313563 -12.342419 -177.443088 -13.324781 -0.705297 -0.931500 14.720468 0.076186 -0.030948 1.388887 0.106939 -0.081880 2.247147 0.137055 -0.327123 13.324657 0.865556 1.969989 13.097633 -5.713351 3.466458 -11.831274 -6.640370 0.894744 0.893364 1.130642 0.746543 -10.792773 -7.345619 -97.352996 -64.247030 127.773583 -10.952864 0.044709 0.167859 -6.749789 -1.015692 1.588628 4.144522 -12.759280 5.561742 63.693226 -53.956184 -102.812834 8.739303 -12.213908 9.352407 -3.201111 -61.974018 11.037556 -30.593145 85.498202 -34.579519 -10.401753 -19.170598 14.406599 0.352298 0.260347 -0.483967 17.436819 -56.298838 -21.275677 68.142538 71.241292 69.301658 -6.951768 -14.783460 1.044652 0.139572 0.813301 0.045985
-45.365699 56.309957 -12.346319 -177.463792 -13.311503 -0.691166 -0.927877 14.678499 0.049521 -0.028586 1.382728 0.104229 -0.075829 2.247130 0.138908 -0.313449 13.304234 0.851352 1.939636 12.962461 -5.795240 3.456178 -11.953740 -6.715285 0.856636 0.870647 1.122071 0.671164 -10.741168 -7.280920 -97.295361 -64.232371 127.683363 -10.940737 0.224796 0.174120 -6.723630 -1.073482 1.601849 4.153296 -12.647467 5.553370 63.694025 -53.966003 -102.804770 8.746793 -12.181329 9.324914 -3.219872 -61.986167 11.051653 -31.096184 85.502900 -35.095321 -10.398790 -19.293580 14.560259 0.367865 0.218045 -0.459546 17.467322 -56.310781 -21.293771 68.152469 71.241219 69.309736 -6.960899 -14.791282 1.042574 0.145074 0.823746 0.051187
-45.365029 56.306303 -12.349226 -177.488756 -13.296942 -0.675763 -0.920569 14.635899 0.020924 -0.025196 1.374578 0.104558 -0.066451 2.271373 0.148935 -0.309140 13.297619 0.846654 1.907642 12.795795 -5.898746 3.448422 -12.074664 -6.787872 0.821849 0.815349 1.096342 0.601145 -10.693832 -7.228495 -97.237721 -64.219228 127.595658 -10.926557 0.399885 0.177436 -6.704665 -1.146374 1.602947 4.150129 -12.557752 5.553048 63.765140 -53.950200 -102.810401 8.741055 -12.131871 9.306241 -3.280945 -61.996879 11.100796 -31.491497 85.506401 -35.521453 -10.382218 -19.391880 14.700475 0.376751 0.166378 -0.436195 17.484312 -56.328347 -21.298438 68.176130 71.238891 69.320060 -6.969968 -14.796941 1.040764 0.151281 0.834490 0.058321
-45.364037 56.302839 -12.351429 -177.521668 -13.283381 -0.663629 -0.896977 14.608388 0.006428 -0.031863 1.354447 0.094563 -0.063300 2.260520 0.144381 -0.291343 13.223307 0.790157 1.891789 12.734122 -5.926685 3.440450 -12.194704 -6.857209 0.786451 0.863347 1.144147 0.534862 -10.649004 -7.185549 -97.189226 -64.206672 127.518913 -10.907316 0.579589 0.179037 -6.695381 -1.108161 1.665006 4.154711 -12.469915 5.548512 63.777005 -53.944062 -102.807575 8.740762 -12.131789 9.344279 -3.414147 -61.998039 11.206121 -31.602971 85.511860 -35.686715 -10.338462 -19.474704 14.819808 0.364082 0.112174 -0.419081 17.506708 -56.347359 -21.300390 68.199596 71.238878 69.342314 -6.991338 -14.799105 1.030955 0.174555 0.838173 0.066073
-45.362326 56.299894 -12.353674 -177.546312 -13.275409 -0.661126 -0.878605 14.586688 -0.000365 -0.049404 1.305292 0.064480 -0.050146 2.263095 0.147433 -0.267525 13.206550 0.768386 1.869562 12.637096 -5.975129 3.431651 -12.312242 -6.923648 0.746822 0.871142 1.171698 0.475617 -10.604021 -7.150389 -97.161398 -64.198604 127.459100 -10.885583 0.765421 0.183819 -6.695184 -1.068329 1.712989 4.220073 -12.426907 5.495012 63.724101 -53.970159 -102.794282 8.741307 -12.125254 9.363497 -3.456608 -62.003585 11.248993 -31.925271 85.507027 -36.020500 -10.317741 -19.527683 14.931685 0.371877 0.052563 -0.387192 17.514791 -56.360931 -21.291499 68.209853 71.242076 69.354990 -7.004482 -14.805384 1.020623 0.196131 0.844306 0.071843
-45.360965 56.297498 -12.355561 -177.581379 -13.270930 -0.657440 -0.877851 14.530760 -0.037574 -0.031833 1.325438 0.078288 -0.036706 2.274934 0.155171 -0.261069 13.165986 0.735245 1.846313 12.527818 -6.033860 3.423302 -12.426566 -6.987673 0.708265 0.861966 1.186200 0.422508 -10.558443 -7.120098 -97.159567 -64.200293 127.421116 -10.863392 0.954821 0.188335 -6.678228 -1.103372 1.749803 4.210736 -12.326559 5.489037 63.740554 -53.968837 -102.802386 8.739864 -12.115492 9.372702 -3.451360 -62.009152 11.271188 -32.211418 85.499141 -36.304819 -10.329263 -19.559656 15.034648 0.377792 -0.004652 -0.348700 17.515956 -56.371099 -21.274784 68.214904 71.239448 69.366306 -7.017041 -14.813463 0.997757 0.222698 0.855751 0.083485
